# xmcd
#
# Track frame offsets:
#	150
#	16236
#	30108
#	44859
#	62821
#	76391
#	89385
#	103895
#	118266
#	134077
#	148119
#	161812
#	174692
#
# Disc length: 2509 seconds
#
# Revision: 1
# Processed by: cddbd v1.5.2PL0 Copyright (c) Steve Scherf et al.
# Submitted via: EasyCDDAExtractor 6.0.0.1
#
DISCID=bd09cb0d
DTITLE=Mazinho Quevedo - A Viola E Eu
DYEAR=2009
DGENRE=Country
TTITLE0=Chora Viola-Mazinho Quevedo
TTITLE1=Bica D'agua-Mazinho Quevedo
TTITLE2=No Tempo Da Escola-Mazinho Quevedo
TTITLE3=Vulumi-Mazinho Quevedo
TTITLE4=Sheila Chora-Mazinho Quevedo
TTITLE5=Castelo  De Amor-Mazinho Quevedo
TTITLE6=Chão Preto-Mazinho Quevedo
TTITLE7=A Viola E Eu-Mazinho Quevedo
TTITLE8=Só Deus Sabe De Mim-Mazinho Quevedo
TTITLE9=Porto Do Adeus-Mazinho Quevedo
TTITLE10=Fim De Um Grande Amor-Mazinho Quevedo
TTITLE11=Violeiro Universitário-Mazinho Quevedo
TTITLE12=Terra De Rodeio-Mazinho Quevedo
EXTD=
EXTT0=
EXTT1=
EXTT2=
EXTT3=
EXTT4=
EXTT5=
EXTT6=
EXTT7=
EXTT8=
EXTT9=
EXTT10=
EXTT11=
EXTT12=
PLAYORDER=
